

Release info:

General
Format                                   : Matroska
Format version                           : Version 2
File size                                : 1.36 GiB
Duration                                 : 1h 53mn
Overall bit rate                         : 1 706 Kbps

Video
ID                                       : 2
Format                                   : MPEG-4 Visual
Format profile                           : Advanced Simple@L5
Format settings, BVOP                    : Yes
Format settings, QPel                    : No
Format settings, GMC                     : No warppoints
Format settings, Matrix                  : Default (H.263)
Codec ID                                 : V_MS/VFW/FOURCC / XVID
Codec ID/Hint                            : XviD
Duration                                 : 1h 53mn
Bit rate                                 : 1 480 Kbps
Width                                    : 720 pixels
Height                                   : 304 pixels
Display aspect ratio                     : 2.35:1
Frame rate mode                          : Constant
Frame rate                               : 25.000 fps
Color space                              : YUV
Chroma subsampling                       : 4:2:0
Bit depth                                : 8 bits
Scan type                                : Progressive
Compression mode                         : Lossy
Bits/(Pixel*Frame)                       : 0.271
Stream size                              : 1.18 GiB (87%)
Writing library                          : XviD 64
Language                                 : Norwegian
Default                                  : Yes
Forced                                   : No

Audio
ID                                       : 3
Format                                   : AC-3
Format/Info                              : Audio Coding 3
Mode extension                           : CM (complete main)
Format settings, Endianness              : Big
Muxing mode                              : Header stripping
Codec ID                                 : A_AC3
Duration                                 : 1h 53mn
Bit rate mode                            : Constant
Bit rate                                 : 192 Kbps
Channel(s)                               : 2 channels
Channel positions                        : Front: L R
Sampling rate                            : 48.0 KHz
Bit depth                                : 16 bits
Compression mode                         : Lossy
Stream size                              : 156 MiB (11%)
Language                                 : Norwegian
Default                                  : Yes
Forced                                   : No

Text
ID                                       : 1
Format                                   : UTF-8
Codec ID                                 : S_TEXT/UTF8
Codec ID/Info                            : UTF-8 Plain Text
Language                                 : English
Default                                  : Yes
Forced                                   : No


Source:
credit to original movie ripper NEWERA (Thanks)

IMDB Info:

The legendary explorer Thor Heyerdal's epic 4,300 miles crossing of the Pacific on a balsa wood raft in 1947, to prove that this could have been done in pre-Columbian times for South Americans to settle in Polynesia.

Directors: Joachim Rønning, Espen Sandberg
Writers: Petter Skavlan, Allan Scott (script consultant)
Stars: Pål Sverre Valheim Hagen, Anders Baasmo Christiansen and Gustaf Skarsgård

Genres: Action | Adventure | Biography | Drama | History
 
http://www.imdb.com/title/tt1613750/

Screen Shot:
 
http://www.shotpix.com/images/87736440292774916266.png 
http://www.shotpix.com/images/84673671702314244253.png 
http://www.shotpix.com/images/98240755903690099228.png 
http://www.shotpix.com/images/26339799602269091408.png 
http://www.shotpix.com/images/89900184865213804387.png 
http://www.shotpix.com/images/93784923951014925776.png 
http://www.shotpix.com/images/20281494142594732117.png 
http://www.shotpix.com/images/58689148277898451579.png